<?xml version="1.0" encoding="utf-8"?>
<!-- Generator: Adobe Illustrator 25.0.0, SVG Export Plug-In . SVG Version: 6.00 Build 0)  -->
<svg version="1.1" id="Layer_1" xmlns="http://www.w3.org/2000/svg" xmlns:xlink="http://www.w3.org/1999/xlink" x="0px" y="0px"
	 viewBox="0 0 16 16" style="enable-background:new 0 0 16 16;" xml:space="preserve">
<style type="text/css">
	.st0{fill:#7C4379;}
</style>
<g id="XMLID_2_">
	<g>
		<path class="st0" d="M9.7,4.1C10,4,10.2,4,10.4,3.9c0.3,0,0.5-0.1,0.8,0c0.5,0,0.9,0.1,1.3,0.3c0.7,0.3,1.2,0.7,1.6,1.3
			c-0.2,0.1-0.3,0.2-0.5,0.4c-0.3,0.3-0.6,0.6-0.8,1c-0.3,0.5-0.4,1.1-0.4,1.7c0,0.7,0.2,1.3,0.6,1.9c0.3,0.4,0.6,0.8,1,1
			c0.2,0.1,0.4,0.2,0.6,0.3c-0.1,0.3-0.2,0.5-0.3,0.7c-0.3,0.5-0.6,1-0.9,1.5c-0.3,0.4-0.5,0.7-0.7,0.9c-0.3,0.3-0.5,0.6-0.8,0.7
			c-0.3,0.2-0.6,0.3-1,0.3c-0.2,0-0.5,0-0.7-0.1s-0.4-0.1-0.6-0.2c-0.2-0.1-0.4-0.2-0.6-0.2c-0.3-0.1-0.5-0.1-0.8-0.1
			s-0.5,0-0.8,0.1c-0.2,0.1-0.4,0.1-0.6,0.2c-0.3,0.1-0.5,0.2-0.6,0.2c0,0.1-0.3,0.2-0.5,0.2c-0.3,0-0.7-0.1-1-0.3s-0.6-0.5-0.8-0.8
			c-0.3-0.3-0.5-0.6-0.7-1c-0.5-0.8-0.9-1.6-1.2-2.4c-0.3-1-0.5-2-0.5-2.9c0-1.1,0.2-2,0.7-2.7C2.5,5.3,3,4.8,3.6,4.5
			C4.2,4.1,4.8,4,5.5,3.9c0.2,0,0.5,0,0.8,0.1C6.5,4.1,6.7,4.1,7,4.2c0.4,0.1,0.6,0.2,0.6,0.3C7.8,4.6,8,4.6,8.1,4.6s0.3,0,0.4-0.1
			c0.1,0,0.3-0.1,0.5-0.2C9.3,4.2,9.5,4.1,9.7,4.1z"/>
		<path class="st0" d="M10.3,2.5C10,2.9,9.7,3.1,9.2,3.3C8.8,3.6,8.4,3.7,8,3.7C7.9,3.3,8,2.8,8.2,2.3c0.2-0.4,0.4-0.8,0.7-1.1
			S9.6,0.6,10,0.4C10.4,0.1,10.8,0,11.2,0c0.1,0.4,0,0.9-0.2,1.4C10.9,1.8,10.6,2.2,10.3,2.5z"/>
	</g>
</g>
</svg>
