<?xml version="1.0" encoding="utf-8"?>
<!-- Generator: Adobe Illustrator 25.0.0, SVG Export Plug-In . SVG Version: 6.00 Build 0)  -->
<svg version="1.1" id="Layer_1" xmlns="http://www.w3.org/2000/svg" xmlns:xlink="http://www.w3.org/1999/xlink" x="0px" y="0px"
	 viewBox="0 0 16 16" style="enable-background:new 0 0 16 16;" xml:space="preserve">
<style type="text/css">
	.st0{fill:#7C4379;}
</style>
<g id="XMLID_1_">
	<g>
		<circle class="st0" cx="12.3" cy="3.7" r="1"/>
		<path class="st0" d="M12.1,8c0,2.3-1.8,4.1-4.1,4.1S3.9,10.3,3.9,8S5.7,3.9,8,3.9S12.1,5.7,12.1,8z M10.7,8c0-1.5-1.2-2.7-2.7-2.7
			S5.3,6.5,5.3,8s1.2,2.7,2.7,2.7S10.7,9.5,10.7,8z"/>
		<path class="st0" d="M1.3,1.3c0.4-0.4,0.9-0.7,1.4-0.9S3.8,0.1,4.6,0c1,0,1.2,0,3.4,0s2.4,0,3.3,0.1c0.8,0,1.4,0.2,1.9,0.4
			s1,0.5,1.4,0.9s0.7,0.9,0.9,1.4s0.3,1.1,0.4,1.9C16,5.6,16,5.8,16,8s0,2.4-0.1,3.3c0,0.8-0.2,1.4-0.4,1.9s-0.5,1-0.9,1.4
			s-0.9,0.7-1.4,0.9s-1.1,0.3-1.9,0.4C10.4,16,10.2,16,8,16s-2.4,0-3.3-0.1c-0.8,0-1.4-0.2-1.9-0.4s-1-0.5-1.4-0.9s-0.7-0.9-0.9-1.4
			s-0.3-1.1-0.4-1.9C0,10.4,0,10.2,0,8s0-2.4,0.1-3.3c0-0.8,0.2-1.4,0.4-1.9C0.6,2.2,0.9,1.8,1.3,1.3z M4.7,1.5
			C4,1.5,3.5,1.6,3.3,1.7c-0.4,0.2-0.7,0.4-1,0.6s-0.4,0.6-0.6,1C1.6,3.5,1.5,4,1.5,4.8s0,1.1,0,3.2s0,2.4,0,3.2s0.2,1.2,0.3,1.5
			c0.1,0.4,0.3,0.6,0.6,0.9s0.5,0.4,0.9,0.6c0.3,0.1,0.7,0.2,1.5,0.3c0.9,0,1.1,0.1,3.2,0.1s2.4,0,3.2-0.1c0.8,0,1.2-0.2,1.5-0.3
			c0.4-0.1,0.6-0.3,0.9-0.6c0.3-0.3,0.4-0.6,0.6-0.9c0.1-0.3,0.2-0.7,0.3-1.5c0-0.8,0.1-1.1,0.1-3.2s0-2.4-0.1-3.2
			c0-0.8-0.2-1.2-0.3-1.5c-0.1-0.4-0.3-0.6-0.6-0.9S13,2,12.7,1.8c-0.3-0.1-0.7-0.2-1.5-0.3c-0.8,0-1.1,0-3.2,0l0,0
			C5.8,1.4,5.6,1.4,4.7,1.5z"/>
	</g>
</g>
</svg>
