<?xml version="1.0" encoding="utf-8"?>
<!-- Generator: Adobe Illustrator 25.0.0, SVG Export Plug-In . SVG Version: 6.00 Build 0)  -->
<svg version="1.1" id="Layer_1" xmlns="http://www.w3.org/2000/svg" xmlns:xlink="http://www.w3.org/1999/xlink" x="0px" y="0px"
	 viewBox="0 0 24 24" style="enable-background:new 0 0 24 24;" xml:space="preserve">
<style type="text/css">
	.st0{fill:#7C4379;}
</style>
<g id="XMLID_1_">
	<g>
		<path class="st0" d="M24,14.8c0,1.7-1.3,3.1-2.9,3.1H12V7.8c0.8-0.6,1.7-0.9,2.8-0.9c2.7,0,4.9,2.2,5.1,5.1
			C21.8,11.1,24,12.6,24,14.8z"/>
		<path class="st0" d="M11,8.7v9.2h-1V9.4l0.4,0.2C10.6,9.3,10.8,9,11,8.7z"/>
		<path class="st0" d="M9,9.1V18H8V9.1C8.4,9,8.5,9,9,9.1z"/>
		<path class="st0" d="M7,9.3v8.6H6v-8C6.3,9.6,6.6,9.4,7,9.3z"/>
		<path class="st0" d="M5,10.9v7H4v-5.7l0.3,0.2C4.4,11.9,4.7,11.4,5,10.9z"/>
		<path class="st0" d="M2,12.1C2.5,12,2.7,12,3,12v6c-0.4,0-0.5,0-1-0.1V12.1z"/>
		<path class="st0" d="M1,12.7v4.5c-0.6-0.5-1-1.3-1-2.3C0,14,0.4,13.2,1,12.7z"/>
	</g>
</g>
</svg>
