<?xml version="1.0" encoding="utf-8"?>
<!-- Generator: Adobe Illustrator 25.0.0, SVG Export Plug-In . SVG Version: 6.00 Build 0)  -->
<svg version="1.1" id="Layer_1" xmlns="http://www.w3.org/2000/svg" xmlns:xlink="http://www.w3.org/1999/xlink" x="0px" y="0px"
	 viewBox="0 0 16 16" style="enable-background:new 0 0 16 16;" xml:space="preserve">
<style type="text/css">
	.st0{fill:#7C4379;}
</style>
<g id="XMLID_2_">
	<g>
		<path class="st0" d="M12.5,8.6c-2.5-1.5-6.1-2-9-1.1C3.2,7.6,3,7.9,3.1,8.2c0.1,0.3,0.4,0.5,0.8,0.4c2.5-0.8,5.8-0.4,8,0.9
			c0.3,0.2,0.6,0.1,0.8-0.2C12.8,9.1,12.7,8.7,12.5,8.6z M13.5,5.9C10.5,4.1,5.8,4,3,4.8C2.6,4.9,2.4,5.3,2.5,5.7
			C2.6,6.1,3,6.3,3.4,6.2c2.4-0.8,6.7-0.6,9.3,0.9c0.4,0.2,0.8,0.1,1-0.2C14,6.6,13.8,6.1,13.5,5.9z M11,11.7
			c0.2,0.2,0.5,0.1,0.7-0.2c0.1-0.2,0.1-0.6-0.2-0.7C9.4,9.6,6.8,9.3,3.7,10c-0.2,0.1-0.4,0.3-0.4,0.6C3.4,10.8,3.7,11,4,11
			C6.8,10.3,9.1,10.6,11,11.7z M0,8c0-4.4,3.6-8,8-8s8,3.6,8,8s-3.6,8-8,8S0,12.4,0,8z"/>
	</g>
</g>
</svg>
